<mxfile host="app.diagrams.net" modified="2024-06-19T08:00:33.223Z" agent="Mozilla/5.0 (Macintosh; Intel Mac OS X 10_15_7) AppleWebKit/537.36 (KHTML, like Gecko) Chrome/125.0.0.0 Safari/537.36" etag="roPNFRR8PQ0RXn6__czz" version="24.5.5" type="github">
  <diagram name="第 1 页" id="f2zYCQNRvbDLaz0D2AJr">
    <mxGraphModel dx="2074" dy="1121" grid="1" gridSize="10" guides="1" tooltips="1" connect="1" arrows="1" fold="1" page="1" pageScale="1" pageWidth="827" pageHeight="1169" math="0" shadow="0">
      <root>
        <mxCell id="0" />
        <mxCell id="1" parent="0" />
        <mxCell id="R1mutNMZrwCCWegqQfkT-9" style="edgeStyle=orthogonalEdgeStyle;rounded=0;orthogonalLoop=1;jettySize=auto;html=1;entryX=0;entryY=0.5;entryDx=0;entryDy=0;" edge="1" parent="1" source="R1mutNMZrwCCWegqQfkT-1" target="R1mutNMZrwCCWegqQfkT-4">
          <mxGeometry relative="1" as="geometry">
            <mxPoint x="380" y="380" as="targetPoint" />
          </mxGeometry>
        </mxCell>
        <mxCell id="R1mutNMZrwCCWegqQfkT-1" value="syncer" style="rounded=1;whiteSpace=wrap;html=1;" vertex="1" parent="1">
          <mxGeometry x="180" y="190" width="120" height="60" as="geometry" />
        </mxCell>
        <mxCell id="R1mutNMZrwCCWegqQfkT-8" style="edgeStyle=orthogonalEdgeStyle;rounded=0;orthogonalLoop=1;jettySize=auto;html=1;entryX=0.5;entryY=0;entryDx=0;entryDy=0;" edge="1" parent="1" source="R1mutNMZrwCCWegqQfkT-2" target="R1mutNMZrwCCWegqQfkT-4">
          <mxGeometry relative="1" as="geometry" />
        </mxCell>
        <mxCell id="R1mutNMZrwCCWegqQfkT-2" value="syncer" style="rounded=1;whiteSpace=wrap;html=1;" vertex="1" parent="1">
          <mxGeometry x="380" y="190" width="120" height="60" as="geometry" />
        </mxCell>
        <mxCell id="R1mutNMZrwCCWegqQfkT-13" value="" style="edgeStyle=orthogonalEdgeStyle;rounded=0;orthogonalLoop=1;jettySize=auto;html=1;" edge="1" parent="1" source="R1mutNMZrwCCWegqQfkT-4" target="R1mutNMZrwCCWegqQfkT-5">
          <mxGeometry relative="1" as="geometry" />
        </mxCell>
        <mxCell id="R1mutNMZrwCCWegqQfkT-4" value="DB" style="whiteSpace=wrap;html=1;aspect=fixed;" vertex="1" parent="1">
          <mxGeometry x="400" y="370" width="80" height="80" as="geometry" />
        </mxCell>
        <mxCell id="R1mutNMZrwCCWegqQfkT-5" value="redis队列" style="whiteSpace=wrap;html=1;aspect=fixed;" vertex="1" parent="1">
          <mxGeometry x="400" y="560" width="80" height="80" as="geometry" />
        </mxCell>
        <mxCell id="R1mutNMZrwCCWegqQfkT-19" style="edgeStyle=orthogonalEdgeStyle;rounded=0;orthogonalLoop=1;jettySize=auto;html=1;entryX=1;entryY=0.5;entryDx=0;entryDy=0;" edge="1" parent="1" source="R1mutNMZrwCCWegqQfkT-6" target="R1mutNMZrwCCWegqQfkT-5">
          <mxGeometry relative="1" as="geometry" />
        </mxCell>
        <mxCell id="R1mutNMZrwCCWegqQfkT-27" style="edgeStyle=orthogonalEdgeStyle;rounded=0;orthogonalLoop=1;jettySize=auto;html=1;entryX=1;entryY=0.5;entryDx=0;entryDy=0;" edge="1" parent="1" source="R1mutNMZrwCCWegqQfkT-6" target="R1mutNMZrwCCWegqQfkT-23">
          <mxGeometry relative="1" as="geometry">
            <Array as="points">
              <mxPoint x="680" y="1010" />
            </Array>
          </mxGeometry>
        </mxCell>
        <mxCell id="R1mutNMZrwCCWegqQfkT-6" value="logic" style="shape=process;whiteSpace=wrap;html=1;backgroundOutline=1;" vertex="1" parent="1">
          <mxGeometry x="620" y="760" width="120" height="60" as="geometry" />
        </mxCell>
        <mxCell id="R1mutNMZrwCCWegqQfkT-12" style="edgeStyle=orthogonalEdgeStyle;rounded=0;orthogonalLoop=1;jettySize=auto;html=1;entryX=1;entryY=0.5;entryDx=0;entryDy=0;" edge="1" parent="1" source="R1mutNMZrwCCWegqQfkT-11" target="R1mutNMZrwCCWegqQfkT-4">
          <mxGeometry relative="1" as="geometry" />
        </mxCell>
        <mxCell id="R1mutNMZrwCCWegqQfkT-11" value="syncer" style="rounded=1;whiteSpace=wrap;html=1;" vertex="1" parent="1">
          <mxGeometry x="620" y="190" width="120" height="60" as="geometry" />
        </mxCell>
        <mxCell id="R1mutNMZrwCCWegqQfkT-18" style="edgeStyle=orthogonalEdgeStyle;rounded=0;orthogonalLoop=1;jettySize=auto;html=1;entryX=0.5;entryY=1;entryDx=0;entryDy=0;" edge="1" parent="1" source="R1mutNMZrwCCWegqQfkT-14" target="R1mutNMZrwCCWegqQfkT-5">
          <mxGeometry relative="1" as="geometry" />
        </mxCell>
        <mxCell id="R1mutNMZrwCCWegqQfkT-26" style="edgeStyle=orthogonalEdgeStyle;rounded=0;orthogonalLoop=1;jettySize=auto;html=1;" edge="1" parent="1" source="R1mutNMZrwCCWegqQfkT-14" target="R1mutNMZrwCCWegqQfkT-23">
          <mxGeometry relative="1" as="geometry" />
        </mxCell>
        <mxCell id="R1mutNMZrwCCWegqQfkT-14" value="logic" style="shape=process;whiteSpace=wrap;html=1;backgroundOutline=1;" vertex="1" parent="1">
          <mxGeometry x="380" y="750" width="120" height="60" as="geometry" />
        </mxCell>
        <mxCell id="R1mutNMZrwCCWegqQfkT-17" style="edgeStyle=orthogonalEdgeStyle;rounded=0;orthogonalLoop=1;jettySize=auto;html=1;entryX=0;entryY=0.5;entryDx=0;entryDy=0;" edge="1" parent="1" source="R1mutNMZrwCCWegqQfkT-15" target="R1mutNMZrwCCWegqQfkT-5">
          <mxGeometry relative="1" as="geometry" />
        </mxCell>
        <mxCell id="R1mutNMZrwCCWegqQfkT-25" style="edgeStyle=orthogonalEdgeStyle;rounded=0;orthogonalLoop=1;jettySize=auto;html=1;entryX=0;entryY=0.5;entryDx=0;entryDy=0;" edge="1" parent="1" source="R1mutNMZrwCCWegqQfkT-15" target="R1mutNMZrwCCWegqQfkT-23">
          <mxGeometry relative="1" as="geometry">
            <Array as="points">
              <mxPoint x="240" y="1010" />
            </Array>
          </mxGeometry>
        </mxCell>
        <mxCell id="R1mutNMZrwCCWegqQfkT-15" value="logic" style="shape=process;whiteSpace=wrap;html=1;backgroundOutline=1;" vertex="1" parent="1">
          <mxGeometry x="180" y="750" width="120" height="60" as="geometry" />
        </mxCell>
        <mxCell id="R1mutNMZrwCCWegqQfkT-21" value="" style="rounded=1;whiteSpace=wrap;html=1;fillOpacity=0;" vertex="1" parent="1">
          <mxGeometry x="100" y="100" width="700" height="600" as="geometry" />
        </mxCell>
        <mxCell id="R1mutNMZrwCCWegqQfkT-23" value="DB收集错误" style="whiteSpace=wrap;html=1;aspect=fixed;" vertex="1" parent="1">
          <mxGeometry x="400" y="970" width="80" height="80" as="geometry" />
        </mxCell>
      </root>
    </mxGraphModel>
  </diagram>
</mxfile>
